<svg width="inherit" height="inherit" viewBox="0 0 475 312" fill="none"
  xmlns="http://www.w3.org/2000/svg">
  <rect width="475" height="312" fill="#BC4749" />

  <g mask="url(#mask0_1_1551)">
    <path
      d="M171.64 161.16V181H153.976V161.16H111.48V148.36L155.896 91.4H171.64V146.696H182.648V161.16H171.64ZM131.32 146.696H153.976V117.768H153.72L131.32 146.44V146.696ZM263.895 173.064L249.047 181.64H214.103L199.255 173.064V99.336L214.103 90.76H249.047L263.895 99.336V173.064ZM217.175 106.12V166.28H245.975V106.12H217.175ZM339.39 161.16V181H321.726V161.16H279.23V148.36L323.646 91.4H339.39V146.696H350.398V161.16H339.39ZM299.07 146.696H321.726V117.768H321.47L299.07 146.44V146.696Z"
      fill="black" />
    <path
      d="M38.8004 248C78.1476 248 113.527 226.429 132 191.672L49.3805 142L132 92.3284C113.527 57.571 78.1476 36 38.8004 36C-19.5379 36 -67 83.5516 -67 142C-67 200.448 -19.5379 248 38.8004 248ZM33.5104 78.4C37.7208 78.4014 41.7582 80.0785 44.7344 83.0623C47.7106 86.0461 49.3819 90.0923 49.3805 94.3106C49.3791 98.5289 47.7051 102.574 44.7269 105.556C41.7487 108.538 37.7102 110.212 33.4998 110.211C29.2894 110.209 25.252 108.532 22.2758 105.548C19.2996 102.564 17.6283 98.5183 17.6298 94.3C17.6312 90.0817 19.3051 86.0366 22.2833 83.0548C25.2615 80.073 29.3 78.3986 33.5104 78.4Z"
      fill="#FDC500" />
    <path
      d="M154.116 191.005C147.274 191.19 142 196.562 142 202.722V218.186C142 219.021 143.122 219.439 143.778 218.849L145.4 217.763C145.834 217.473 146.442 217.529 146.801 217.892L149.597 220.725C150.004 221.092 150.663 221.092 151.07 220.725L153.721 218.039C154.136 217.619 154.865 217.619 155.279 218.039L157.93 220.725C158.337 221.092 158.996 221.092 159.403 220.725L162.199 217.892C162.558 217.529 163.166 217.472 163.6 217.763L165.222 218.849C165.878 219.439 167 219.021 167 218.186V202.25C167 195.922 161.195 190.814 154.116 191.005ZM150.333 204.125C149.183 204.125 148.25 203.285 148.25 202.25C148.25 201.215 149.183 200.375 150.333 200.375C151.484 200.375 152.417 201.215 152.417 202.25C152.417 203.285 151.484 204.125 150.333 204.125ZM158.667 204.125C157.516 204.125 156.583 203.285 156.583 202.25C156.583 201.215 157.516 200.375 158.667 200.375C159.817 200.375 160.75 201.215 160.75 202.25C160.75 203.285 159.817 204.125 158.667 204.125Z"
      fill="#F95738" />
    <path
      d="M189.116 191.005C182.274 191.19 177 196.562 177 202.722V218.186C177 219.021 178.122 219.439 178.778 218.849L180.4 217.763C180.834 217.473 181.442 217.529 181.801 217.892L184.597 220.725C185.004 221.092 185.663 221.092 186.07 220.725L188.721 218.039C189.136 217.619 189.865 217.619 190.279 218.039L192.93 220.725C193.337 221.092 193.996 221.092 194.403 220.725L197.199 217.892C197.558 217.529 198.166 217.472 198.6 217.763L200.222 218.849C200.878 219.439 202 219.021 202 218.186V202.25C202 195.922 196.195 190.814 189.116 191.005ZM185.333 204.125C184.183 204.125 183.25 203.285 183.25 202.25C183.25 201.215 184.183 200.375 185.333 200.375C186.484 200.375 187.417 201.215 187.417 202.25C187.417 203.285 186.484 204.125 185.333 204.125ZM193.667 204.125C192.516 204.125 191.583 203.285 191.583 202.25C191.583 201.215 192.516 200.375 193.667 200.375C194.817 200.375 195.75 201.215 195.75 202.25C195.75 203.285 194.817 204.125 193.667 204.125Z"
      fill="#0091AD" />
    <path
      d="M224.116 191.005C217.274 191.19 212 196.562 212 202.722V218.186C212 219.021 213.122 219.439 213.778 218.849L215.4 217.763C215.834 217.473 216.442 217.529 216.801 217.892L219.597 220.725C220.004 221.092 220.663 221.092 221.07 220.725L223.721 218.039C224.136 217.619 224.865 217.619 225.279 218.039L227.93 220.725C228.337 221.092 228.996 221.092 229.403 220.725L232.199 217.892C232.558 217.529 233.166 217.472 233.6 217.763L235.222 218.849C235.878 219.439 237 219.021 237 218.186V202.25C237 195.922 231.195 190.814 224.116 191.005ZM220.333 204.125C219.183 204.125 218.25 203.285 218.25 202.25C218.25 201.215 219.183 200.375 220.333 200.375C221.484 200.375 222.417 201.215 222.417 202.25C222.417 203.285 221.484 204.125 220.333 204.125ZM228.667 204.125C227.516 204.125 226.583 203.285 226.583 202.25C226.583 201.215 227.516 200.375 228.667 200.375C229.817 200.375 230.75 201.215 230.75 202.25C230.75 203.285 229.817 204.125 228.667 204.125Z"
      fill="#FFC0CB" />
    <path
      d="M259.116 191.005C252.274 191.19 247 196.562 247 202.722V218.186C247 219.021 248.122 219.439 248.778 218.849L250.4 217.763C250.834 217.473 251.442 217.529 251.801 217.892L254.597 220.725C255.004 221.092 255.663 221.092 256.07 220.725L258.721 218.039C259.136 217.619 259.865 217.619 260.279 218.039L262.93 220.725C263.337 221.092 263.996 221.092 264.403 220.725L267.199 217.892C267.558 217.529 268.166 217.472 268.6 217.763L270.222 218.849C270.878 219.439 272 219.021 272 218.186V202.25C272 195.922 266.195 190.814 259.116 191.005ZM255.333 204.125C254.183 204.125 253.25 203.285 253.25 202.25C253.25 201.215 254.183 200.375 255.333 200.375C256.484 200.375 257.417 201.215 257.417 202.25C257.417 203.285 256.484 204.125 255.333 204.125ZM263.667 204.125C262.516 204.125 261.583 203.285 261.583 202.25C261.583 201.215 262.516 200.375 263.667 200.375C264.817 200.375 265.75 201.215 265.75 202.25C265.75 203.285 264.817 204.125 263.667 204.125Z"
      fill="#FFFF00" />
    <path
      d="M192.82 188.24C193.767 188.24 194.5 188.44 195.02 188.84C195.54 189.227 195.9 189.753 196.1 190.42C196.313 191.073 196.42 191.807 196.42 192.62V197.98C196.42 198.273 196.32 198.52 196.12 198.72C195.933 198.907 195.7 199 195.42 199C195.127 199 194.887 198.907 194.7 198.72C194.513 198.52 194.42 198.273 194.42 197.98V192.64C194.42 192.16 194.353 191.733 194.22 191.36C194.087 190.973 193.853 190.667 193.52 190.44C193.2 190.2 192.747 190.08 192.16 190.08C191.613 190.08 191.133 190.2 190.72 190.44C190.307 190.667 189.98 190.973 189.74 191.36C189.513 191.733 189.4 192.16 189.4 192.64V197.98C189.4 198.273 189.3 198.52 189.1 198.72C188.913 198.907 188.68 199 188.4 199C188.107 199 187.867 198.907 187.68 198.72C187.493 198.52 187.4 198.273 187.4 197.98V189.5C187.4 189.207 187.493 188.967 187.68 188.78C187.867 188.58 188.107 188.48 188.4 188.48C188.68 188.48 188.913 188.58 189.1 188.78C189.3 188.967 189.4 189.207 189.4 189.5V190.62L189.04 190.82C189.133 190.527 189.293 190.233 189.52 189.94C189.76 189.633 190.047 189.353 190.38 189.1C190.713 188.833 191.087 188.627 191.5 188.48C191.913 188.32 192.353 188.24 192.82 188.24ZM209.277 193.74C209.277 194.807 209.044 195.753 208.577 196.58C208.11 197.393 207.477 198.033 206.677 198.5C205.877 198.967 204.977 199.2 203.977 199.2C202.977 199.2 202.077 198.967 201.277 198.5C200.477 198.033 199.837 197.393 199.357 196.58C198.89 195.753 198.657 194.807 198.657 193.74C198.657 192.66 198.89 191.713 199.357 190.9C199.837 190.073 200.477 189.427 201.277 188.96C202.077 188.48 202.977 188.24 203.977 188.24C204.977 188.24 205.877 188.48 206.677 188.96C207.477 189.427 208.11 190.073 208.577 190.9C209.044 191.713 209.277 192.66 209.277 193.74ZM207.277 193.74C207.277 193.007 207.13 192.373 206.837 191.84C206.544 191.293 206.144 190.867 205.637 190.56C205.144 190.24 204.59 190.08 203.977 190.08C203.364 190.08 202.804 190.24 202.297 190.56C201.79 190.867 201.39 191.293 201.097 191.84C200.804 192.373 200.657 193.007 200.657 193.74C200.657 194.447 200.804 195.073 201.097 195.62C201.39 196.167 201.79 196.593 202.297 196.9C202.804 197.207 203.364 197.36 203.977 197.36C204.59 197.36 205.144 197.207 205.637 196.9C206.144 196.593 206.544 196.167 206.837 195.62C207.13 195.073 207.277 194.447 207.277 193.74ZM211.401 188.6H216.101C216.367 188.6 216.587 188.693 216.761 188.88C216.947 189.053 217.041 189.273 217.041 189.54C217.041 189.793 216.947 190.007 216.761 190.18C216.587 190.353 216.367 190.44 216.101 190.44H211.401C211.134 190.44 210.907 190.353 210.721 190.18C210.547 189.993 210.461 189.773 210.461 189.52C210.461 189.253 210.547 189.033 210.721 188.86C210.907 188.687 211.134 188.6 211.401 188.6ZM213.501 186C213.794 186 214.034 186.1 214.221 186.3C214.407 186.487 214.501 186.727 214.501 187.02V196.3C214.501 196.54 214.541 196.733 214.621 196.88C214.701 197.027 214.807 197.127 214.941 197.18C215.087 197.233 215.234 197.26 215.381 197.26C215.527 197.26 215.654 197.233 215.761 197.18C215.881 197.127 216.021 197.1 216.181 197.1C216.341 197.1 216.487 197.173 216.621 197.32C216.754 197.467 216.821 197.667 216.821 197.92C216.821 198.24 216.647 198.5 216.301 198.7C215.954 198.9 215.581 199 215.181 199C214.954 199 214.687 198.98 214.381 198.94C214.074 198.9 213.774 198.8 213.481 198.64C213.201 198.48 212.967 198.227 212.781 197.88C212.594 197.52 212.501 197.02 212.501 196.38V187.02C212.501 186.727 212.594 186.487 212.781 186.3C212.981 186.1 213.221 186 213.501 186ZM229.722 184.22C229.975 184.22 230.235 184.253 230.502 184.32C230.769 184.387 230.989 184.5 231.162 184.66C231.349 184.807 231.442 185.013 231.442 185.28C231.442 185.547 231.362 185.767 231.202 185.94C231.042 186.1 230.855 186.18 230.642 186.18C230.509 186.18 230.329 186.153 230.102 186.1C229.875 186.033 229.649 186 229.422 186C229.115 186 228.869 186.073 228.682 186.22C228.495 186.353 228.362 186.527 228.282 186.74C228.202 186.94 228.162 187.14 228.162 187.34V197.98C228.162 198.273 228.062 198.52 227.862 198.72C227.675 198.907 227.442 199 227.162 199C226.869 199 226.629 198.907 226.442 198.72C226.255 198.52 226.162 198.273 226.162 197.98V187.36C226.162 186.44 226.462 185.687 227.062 185.1C227.675 184.513 228.562 184.22 229.722 184.22ZM230.122 188.66C230.389 188.66 230.609 188.747 230.782 188.92C230.955 189.093 231.042 189.313 231.042 189.58C231.042 189.847 230.955 190.067 230.782 190.24C230.609 190.413 230.389 190.5 230.122 190.5H224.942C224.689 190.5 224.469 190.413 224.282 190.24C224.109 190.067 224.022 189.847 224.022 189.58C224.022 189.313 224.109 189.093 224.282 188.92C224.469 188.747 224.689 188.66 224.942 188.66H230.122ZM242.48 193.74C242.48 194.807 242.247 195.753 241.78 196.58C241.313 197.393 240.68 198.033 239.88 198.5C239.08 198.967 238.18 199.2 237.18 199.2C236.18 199.2 235.28 198.967 234.48 198.5C233.68 198.033 233.04 197.393 232.56 196.58C232.093 195.753 231.86 194.807 231.86 193.74C231.86 192.66 232.093 191.713 232.56 190.9C233.04 190.073 233.68 189.427 234.48 188.96C235.28 188.48 236.18 188.24 237.18 188.24C238.18 188.24 239.08 188.48 239.88 188.96C240.68 189.427 241.313 190.073 241.78 190.9C242.247 191.713 242.48 192.66 242.48 193.74ZM240.48 193.74C240.48 193.007 240.333 192.373 240.04 191.84C239.747 191.293 239.347 190.867 238.84 190.56C238.347 190.24 237.793 190.08 237.18 190.08C236.567 190.08 236.007 190.24 235.5 190.56C234.993 190.867 234.593 191.293 234.3 191.84C234.007 192.373 233.86 193.007 233.86 193.74C233.86 194.447 234.007 195.073 234.3 195.62C234.593 196.167 234.993 196.593 235.5 196.9C236.007 197.207 236.567 197.36 237.18 197.36C237.793 197.36 238.347 197.207 238.84 196.9C239.347 196.593 239.747 196.167 240.04 195.62C240.333 195.073 240.48 194.447 240.48 193.74ZM252.584 188.48C252.864 188.48 253.097 188.58 253.284 188.78C253.484 188.967 253.584 189.207 253.584 189.5V194.76C253.584 196.147 253.197 197.233 252.424 198.02C251.65 198.793 250.557 199.18 249.144 199.18C247.744 199.18 246.657 198.793 245.884 198.02C245.124 197.233 244.744 196.147 244.744 194.76V189.5C244.744 189.207 244.837 188.967 245.024 188.78C245.21 188.58 245.45 188.48 245.744 188.48C246.024 188.48 246.257 188.58 246.444 188.78C246.644 188.967 246.744 189.207 246.744 189.5V194.76C246.744 195.627 246.944 196.273 247.344 196.7C247.757 197.127 248.357 197.34 249.144 197.34C249.944 197.34 250.55 197.127 250.964 196.7C251.377 196.273 251.584 195.627 251.584 194.76V189.5C251.584 189.207 251.677 188.967 251.864 188.78C252.05 188.58 252.29 188.48 252.584 188.48ZM261.785 188.24C262.732 188.24 263.465 188.44 263.985 188.84C264.505 189.227 264.865 189.753 265.065 190.42C265.278 191.073 265.385 191.807 265.385 192.62V197.98C265.385 198.273 265.285 198.52 265.085 198.72C264.898 198.907 264.665 199 264.385 199C264.092 199 263.852 198.907 263.665 198.72C263.478 198.52 263.385 198.273 263.385 197.98V192.64C263.385 192.16 263.318 191.733 263.185 191.36C263.052 190.973 262.818 190.667 262.485 190.44C262.165 190.2 261.712 190.08 261.125 190.08C260.578 190.08 260.098 190.2 259.685 190.44C259.272 190.667 258.945 190.973 258.705 191.36C258.478 191.733 258.365 192.16 258.365 192.64V197.98C258.365 198.273 258.265 198.52 258.065 198.72C257.878 198.907 257.645 199 257.365 199C257.072 199 256.832 198.907 256.645 198.72C256.458 198.52 256.365 198.273 256.365 197.98V189.5C256.365 189.207 256.458 188.967 256.645 188.78C256.832 188.58 257.072 188.48 257.365 188.48C257.645 188.48 257.878 188.58 258.065 188.78C258.265 188.967 258.365 189.207 258.365 189.5V190.62L258.005 190.82C258.098 190.527 258.258 190.233 258.485 189.94C258.725 189.633 259.012 189.353 259.345 189.1C259.678 188.833 260.052 188.627 260.465 188.48C260.878 188.32 261.318 188.24 261.785 188.24ZM276.782 184.2C277.075 184.2 277.315 184.293 277.502 184.48C277.688 184.667 277.782 184.913 277.782 185.22V197.98C277.782 198.273 277.688 198.52 277.502 198.72C277.315 198.907 277.075 199 276.782 199C276.502 199 276.262 198.907 276.062 198.72C275.875 198.52 275.782 198.273 275.782 197.98V196.54L276.202 196.56C276.202 196.8 276.102 197.073 275.902 197.38C275.715 197.673 275.455 197.96 275.122 198.24C274.788 198.52 274.395 198.753 273.942 198.94C273.488 199.113 273.002 199.2 272.482 199.2C271.562 199.2 270.735 198.967 270.002 198.5C269.268 198.02 268.688 197.373 268.262 196.56C267.835 195.733 267.622 194.787 267.622 193.72C267.622 192.653 267.835 191.713 268.262 190.9C268.688 190.073 269.262 189.427 269.982 188.96C270.715 188.48 271.528 188.24 272.422 188.24C272.982 188.24 273.502 188.333 273.982 188.52C274.475 188.707 274.902 188.947 275.262 189.24C275.622 189.533 275.902 189.847 276.102 190.18C276.302 190.5 276.402 190.807 276.402 191.1L275.782 191.16V185.22C275.782 184.927 275.875 184.687 276.062 184.5C276.262 184.3 276.502 184.2 276.782 184.2ZM272.702 197.36C273.342 197.36 273.895 197.2 274.362 196.88C274.842 196.56 275.215 196.127 275.482 195.58C275.748 195.033 275.882 194.413 275.882 193.72C275.882 193.027 275.748 192.407 275.482 191.86C275.215 191.313 274.842 190.88 274.362 190.56C273.882 190.24 273.328 190.08 272.702 190.08C272.088 190.08 271.542 190.24 271.062 190.56C270.595 190.88 270.222 191.313 269.942 191.86C269.675 192.407 269.542 193.027 269.542 193.72C269.542 194.413 269.675 195.033 269.942 195.58C270.222 196.127 270.595 196.56 271.062 196.88C271.542 197.2 272.088 197.36 272.702 197.36Z"
      fill="black" />
  </g>
</svg>