<!DOCTYPE svg PUBLIC "-//W3C//DTD SVG 1.1//EN" "http://www.w3.org/Graphics/SVG/1.1/DTD/svg11.dtd">
<!-- Uploaded to: SVG Repo, www.svgrepo.com, Transformed by: SVG Repo Mixer Tools -->
<svg fill="#ffffff" width="64px" height="64px" viewBox="0 0 256 256" id="Flat" xmlns="http://www.w3.org/2000/svg" stroke="#ffffff">
<g id="SVGRepo_bgCarrier" stroke-width="0"/>
<g id="SVGRepo_tracerCarrier" stroke-linecap="round" stroke-linejoin="round"/>
<g id="SVGRepo_iconCarrier"> <path d="M176,60H80a68,68,0,0,0,0,136h96a68,68,0,0,0,0-136Zm0,128H80A60,60,0,0,1,80,68h96a60,60,0,0,1,0,120Zm0-96a36,36,0,1,0,36,36A36.04061,36.04061,0,0,0,176,92Zm0,64a28,28,0,1,1,28-28A28.03146,28.03146,0,0,1,176,156Z"/> </g>
</svg>